<svg xmlns="http://www.w3.org/2000/svg" viewBox="0 0 256 256">
  <rect width="256" height="256" rx="40" fill="#f48fb1"/>
  <circle cx="128" cy="88" r="46" fill="#f6d0b5"/>
  <path d="M82 188c18-44 74-44 92 0v22H82v-22Z" fill="#ec407a"/>
  <path d="M88 76c6-34 74-42 88 0-16-10-28-14-44-14s-28 4-44 14Z" fill="#fdd835"/>
  <circle cx="110" cy="90" r="5" fill="#1f1f1f"/>
  <circle cx="146" cy="90" r="5" fill="#1f1f1f"/>
  <path d="M114 112h28c-3 10-10 16-14 16s-11-6-14-16Z" fill="#d81b60"/>
  <polygon points="128,24 136,40 154,42 141,54 144,72 128,63 112,72 115,54 102,42 120,40" fill="#ffd54f"/>
  <text x="128" y="228" text-anchor="middle" font-family="Arial, sans-serif" font-size="34" font-weight="700" fill="#ffffff">Peach</text>
</svg>
